#N canvas 159 227 752 655 12;
#X obj 105 61 inlet;
#X obj 405 101 inlet;
#X text 101 36 trigger;
#X obj 187 369 pack 0 \$2;
#X obj 462 101 inlet;
#X obj 428 509 line~;
#X obj 432 440 pack 0 \$3;
#X obj 524 101 inlet;
#X obj 586 101 inlet;
#X obj 659 100 inlet;
#X msg 105 130 stop;
#X obj 582 386 pack 0 \$5;
#X text 405 79 level;
#X obj 432 416 * \$1;
#X obj 428 534 outlet~;
#X obj 432 389 * 0.01;
#X text 458 79 attack;
#X text 525 78 decay;
#X text 579 79 sustain;
#X text 656 79 release;
#X text 172 111 attack;
#X obj 174 132 moses;
#X msg 149 370 0;
#X text 409 63 peak;
#X text 208 1 Arguments: level \, attack time \, decay time \, sustain
level \, release time. A \, D \, and R are in msec and S is in percent.
This patch is used as an abstraction in various examples.;
#X text 33 589 Based on pd/doc/3.audio.examples/adsr.pd;
#X obj 105 99 select 0;
#X obj 187 228 bang;
#X obj 174 171 trigger bang bang;
#X obj 187 344 float \$1;
#X obj 408 331 delay \$2;
#X obj 432 364 float \$4;
#X connect 0 0 26 0;
#X connect 1 0 13 1;
#X connect 1 0 29 1;
#X connect 3 0 5 0;
#X connect 4 0 3 1;
#X connect 4 0 30 1;
#X connect 5 0 14 0;
#X connect 6 0 5 0;
#X connect 7 0 6 1;
#X connect 8 0 31 1;
#X connect 9 0 11 1;
#X connect 10 0 30 0;
#X connect 11 0 5 0;
#X connect 13 0 6 0;
#X connect 15 0 13 0;
#X connect 21 0 28 0;
#X connect 21 1 27 0;
#X connect 22 0 5 0;
#X connect 26 0 10 0;
#X connect 26 0 11 0;
#X connect 26 1 21 0;
#X connect 27 0 29 0;
#X connect 27 0 30 0;
#X connect 28 0 27 0;
#X connect 28 1 22 0;
#X connect 29 0 3 0;
#X connect 30 0 31 0;
#X connect 31 0 15 0;
