#N canvas 510 204 622 363 12;
#X obj 307 22 tgl 15 0 empty empty empty 0 -6 0 8 -262144 -1 -1 1 1
;
#X obj 217 226 hsl 200 20 20 20000 1 0 empty empty pitch -2 -8 0 10
-262144 -1 -1 6409 0;
#X msg 62 144 1;
#X msg 63 200 0;
#X msg 63 172 0.5;
#X obj 307 43 metro 500;
#X obj 307 70 trigger bang bang;
#X obj 307 94 random 10;
#X floatatom 435 147 5 0 0 0 - - -;
#X floatatom 316 145 5 0 0 0 - - -;
#X obj 307 118 / 10;
#X obj 423 94 random 30;
#X obj 397 177 mtof;
#X obj 423 118 + 50;
#X text 327 19 <-- generate random notes;
#X obj 128 303 dac~;
#X text 26 18 Soda can synth;
#X msg 139 73 sharpness 100;
#X msg 139 97 sharpness 400;
#X msg 139 122 sharpness 1600;
#X text 193 279 optional creation parameter indicating bp filter sharpness
;
#X obj 140 256 can~ 500;
#X connect 0 0 5 0;
#X connect 1 0 21 1;
#X connect 2 0 21 0;
#X connect 3 0 21 0;
#X connect 4 0 21 0;
#X connect 5 0 6 0;
#X connect 6 0 7 0;
#X connect 6 1 11 0;
#X connect 7 0 10 0;
#X connect 10 0 9 0;
#X connect 10 0 21 0;
#X connect 11 0 13 0;
#X connect 12 0 1 0;
#X connect 13 0 8 0;
#X connect 13 0 12 0;
#X connect 17 0 21 0;
#X connect 18 0 21 0;
#X connect 19 0 21 0;
#X connect 21 0 15 0;
#X connect 21 0 15 1;
