#N canvas 551 388 470 492 12;
#N canvas 161 106 781 654 16x 0;
#X obj 69 345 *~ 0.064;
#X obj 69 368 rpole~ 0.93538;
#X obj 69 391 *~ 0.00431;
#X obj 69 414 cpole~ 0.96559 0.05592;
#X obj 69 440 cpole~ 0.96559 -0.05592;
#X obj 69 463 *~ 0.125;
#X obj 69 486 rzero~ -1;
#X obj 69 509 rzero~ -1;
#X obj 69 532 rzero~ -1;
#X obj 63 97 phasor~;
#X obj 69 566 outlet~;
#X obj 86 151 wrap~;
#X obj 86 127 -~;
#X obj 86 175 *~;
#X obj 63 204 +~;
#X obj 271 156 phasor~;
#X obj 294 210 wrap~;
#X obj 294 186 -~;
#X obj 294 234 *~;
#X obj 271 263 +~;
#X obj 64 271 +~;
#X obj 457 31 block~ 1024 1 16;
#X obj 62 29 inlet;
#X obj 250 34 r osc-params;
#X obj 250 57 unpack 0 0 0 0 0 0;
#X obj 272 100 *~;
#X obj 272 128 +~;
#X msg 341 338 \; osc-params 0.5 -0.5 0.5 0.5 1 0.5;
#X obj 341 312 loadbang;
#X connect 0 0 1 0;
#X connect 1 0 2 0;
#X connect 2 0 3 0;
#X connect 3 0 4 0;
#X connect 3 1 4 1;
#X connect 4 0 5 0;
#X connect 5 0 6 0;
#X connect 6 0 7 0;
#X connect 7 0 8 0;
#X connect 8 0 10 0;
#X connect 9 0 12 0;
#X connect 9 0 14 0;
#X connect 11 0 13 0;
#X connect 12 0 11 0;
#X connect 13 0 14 1;
#X connect 14 0 20 0;
#X connect 15 0 17 0;
#X connect 15 0 19 0;
#X connect 16 0 18 0;
#X connect 17 0 16 0;
#X connect 18 0 19 1;
#X connect 19 0 20 1;
#X connect 20 0 0 0;
#X connect 22 0 9 0;
#X connect 22 0 25 0;
#X connect 23 0 24 0;
#X connect 24 0 12 1;
#X connect 24 1 13 1;
#X connect 24 2 17 1;
#X connect 24 3 18 1;
#X connect 24 4 25 1;
#X connect 24 5 26 1;
#X connect 25 0 26 0;
#X connect 26 0 15 0;
#X connect 28 0 27 0;
#X restore 246 275 pd 16x;
#X obj 28 202 *~;
#X obj 27 172 +~ 0.2;
#X obj 27 226 *~ 2000;
#X obj 247 343 vcf~ 3;
#X obj 60 424 outlet~;
#X text 70 30 amplitude (0-1);
#X obj 246 31 inlet;
#X text 288 34 frequency;
#X obj 27 147 adsr~ 1 10 200 50 500;
#X obj 27 31 inlet;
#X obj 60 396 *~;
#X obj 59 356 line~;
#X obj 94 109 trigger float float;
#X obj 59 294 select 0;
#X obj 59 326 pack 0 150;
#X obj 266 211 loadbang;
#X msg 266 236 440;
#X obj 27 72 route asdr;
#X text 47 454 based on pd/doc/3.audio.examples/J08.classicsynth.pd
;
#X connect 0 0 4 0;
#X connect 1 0 3 0;
#X connect 2 0 1 0;
#X connect 2 0 1 1;
#X connect 3 0 4 1;
#X connect 4 0 11 1;
#X connect 7 0 0 0;
#X connect 9 0 2 0;
#X connect 10 0 18 0;
#X connect 11 0 5 0;
#X connect 12 0 11 0;
#X connect 13 0 9 0;
#X connect 13 1 14 0;
#X connect 14 0 15 0;
#X connect 14 1 12 0;
#X connect 15 0 12 0;
#X connect 16 0 17 0;
#X connect 17 0 0 0;
#X connect 18 0 9 0;
#X connect 18 1 13 0;
