#N canvas 431 313 450 300 10;
#X obj 75 16 inlet;
#X obj 258 32 inlet;
#X obj 229 267 outlet~;
#X obj 243 199 osc~;
#X obj 188 92 osc~ 1;
#X obj 243 175 +~;
#X obj 75 37 t b f;
#X obj 229 246 *~;
#X obj 115 38 s \$0-vel;
#X obj 258 246 r \$0-vel;
#X obj 225 150 *~;
#X obj 74 82 vline~;
#X obj 228 221 *~;
#X obj 225 125 *~;
#X msg 75 60 1 10 0 \, 0 400 10;
#X obj 219 64 * 8;
#X connect 0 0 6 0;
#X connect 1 0 5 1;
#X connect 1 0 13 1;
#X connect 1 0 15 0;
#X connect 3 0 12 1;
#X connect 4 0 10 0;
#X connect 5 0 3 0;
#X connect 6 0 14 0;
#X connect 6 1 8 0;
#X connect 7 0 2 0;
#X connect 9 0 7 1;
#X connect 10 0 5 0;
#X connect 11 0 12 0;
#X connect 11 0 13 0;
#X connect 12 0 7 0;
#X connect 13 0 10 1;
#X connect 14 0 11 0;
#X connect 15 0 4 0;
