#N canvas 690 123 469 289 10;
#X floatatom 327 161 5 0 0 0 - - -;
#X obj 326 181 mtof;
#X obj 169 248 dac~;
#X msg 79 153 1;
#X msg 109 153 0.5;
#X obj 326 119 loadbang;
#X text 363 160 pitch;
#X text 22 152 velocity;
#X msg 138 153 0;
#X obj 176 208 fmbass~;
#X obj 326 140 f 48;
#X connect 0 0 1 0;
#X connect 1 0 9 1;
#X connect 3 0 9 0;
#X connect 4 0 9 0;
#X connect 5 0 10 0;
#X connect 8 0 9 0;
#X connect 9 0 2 0;
#X connect 9 0 2 1;
#X connect 10 0 0 0;
