#N canvas 681 98 804 588 10;
#X floatatom 348 -13 5 0 0 0 - tone -;
#X obj 379 105 osc~;
#X obj 429 105 osc~;
#X obj 479 105 osc~;
#X obj 378 178 +~;
#X obj 378 208 +~;
#X obj 339 105 osc~;
#X obj 342 279 +~;
#X obj 440 335 output~;
#X obj 425 242 tgl 15 0 empty empty empty 17 7 0 10 -262144 -1 -1 0
1;
#X obj 377 139 *~ 0.1;
#X obj 379 68 * 2;
#X obj 429 68 * 3;
#X obj 479 68 * 4;
#X obj 378 238 *~;
#X obj 427 139 *~ 0.1;
#X obj 350 476 dac~;
#X obj 349 38 mtof 60;
#X obj 322 389 +~;
#X obj 232 317 kick~;
#X obj 328 334 /~ 5;
#X obj 477 139 *~ 0.1;
#X floatatom 210 246 5 0 1 0 - kickdrum -;
#X obj 131 346 snare~;
#X floatatom 110 286 5 0 1 0 - snaredrum -;
#X connect 0 0 17 0;
#X connect 1 0 10 0;
#X connect 2 0 15 0;
#X connect 3 0 21 0;
#X connect 4 0 5 0;
#X connect 5 0 14 0;
#X connect 6 0 7 0;
#X connect 7 0 20 0;
#X connect 9 0 14 1;
#X connect 10 0 4 0;
#X connect 11 0 1 0;
#X connect 12 0 2 0;
#X connect 13 0 3 0;
#X connect 14 0 7 1;
#X connect 15 0 4 1;
#X connect 17 0 6 0;
#X connect 17 0 11 0;
#X connect 17 0 12 0;
#X connect 17 0 13 0;
#X connect 18 0 16 0;
#X connect 18 0 16 1;
#X connect 19 0 18 0;
#X connect 20 0 18 1;
#X connect 21 0 5 1;
#X connect 22 0 19 0;
#X connect 23 0 16 0;
#X connect 23 0 16 1;
#X connect 24 0 23 0;
