#N canvas 429 65 998 809 10;
#X floatatom 349 -57 5 0 0 0 - tone -;
#X obj 379 105 osc~;
#X obj 429 105 osc~;
#X obj 479 105 osc~;
#X obj 378 178 +~;
#X obj 378 208 +~;
#X obj 339 105 osc~;
#X obj 342 279 +~;
#X obj 440 335 output~;
#X obj 425 242 tgl 15 0 empty empty empty 17 7 0 10 -262144 -1 -1 0
1;
#X obj 377 139 *~ 0.1;
#X obj 379 68 * 2;
#X obj 429 68 * 3;
#X obj 479 68 * 4;
#X obj 378 238 *~;
#X obj 477 139 *~ 0.2;
#X obj 427 139 *~ 0.1;
#X obj 308 562 dac~;
#X obj 349 38 mtof 60;
#X obj 124 272 square~;
#X obj 171 80 notein;
#X obj 164 122 stripnote;
#X obj 234 155 / 100;
#X floatatom 110 165 5 0 0 0 - - -;
#X floatatom 214 243 5 0 0 0 - - -;
#X obj 247 189 / 5;
#X obj -15 273 square~;
#X floatatom -43 231 5 0 0 0 - - -;
#X obj 12 201 + 5;
#X obj -104 379 kick~;
#X msg -127 336 1;
#X obj 193 397 snare~;
#X msg 172 345 1;
#X floatatom -147 300 5 0.01 1 0 - kick -;
#X connect 0 0 18 0;
#X connect 1 0 10 0;
#X connect 2 0 16 0;
#X connect 3 0 15 0;
#X connect 4 0 5 0;
#X connect 5 0 14 0;
#X connect 6 0 7 0;
#X connect 9 0 14 1;
#X connect 10 0 4 0;
#X connect 11 0 1 0;
#X connect 12 0 2 0;
#X connect 13 0 3 0;
#X connect 14 0 7 1;
#X connect 15 0 5 1;
#X connect 16 0 4 1;
#X connect 18 0 6 0;
#X connect 18 0 11 0;
#X connect 18 0 12 0;
#X connect 18 0 13 0;
#X connect 20 0 21 0;
#X connect 20 1 21 1;
#X connect 21 0 19 0;
#X connect 21 0 23 0;
#X connect 21 1 22 0;
#X connect 22 0 25 0;
#X connect 23 0 28 0;
#X connect 25 0 24 0;
#X connect 28 0 26 0;
#X connect 28 0 27 0;
#X connect 29 0 17 0;
#X connect 29 0 17 1;
#X connect 30 0 29 0;
#X connect 31 0 17 0;
#X connect 31 0 17 1;
#X connect 32 0 31 0;
#X connect 33 0 30 0;
