#N canvas 90 326 359 353 10;
#X obj 44 224 -~;
#X obj 136 193 - 0.5;
#X obj 44 248 +~;
#X obj 44 271 outlet~;
#X obj 52 35 inlet~;
#X obj 28 172 saw~ \$1;
#X obj 79 172 saw~ \$1;
#X obj 136 173 wrap;
#X obj 97 35 inlet;
#X obj 97 56 route width;
#X obj 97 76 t b f;
#X obj 97 96 f 0;
#X obj 192 33 loadbang;
#X obj 192 52 t b b;
#X obj 219 71 f \$2;
#X obj 219 90 sel 0;
#X obj 126 143 +;
#X obj 136 213 * 1.41421;
#X obj 156 143 f 0.5;
#X text 18 300 Constructing a square wave from two sawtooth waves.
Optional construction arguments are frequency and duty cycle (between
0 and 1).;
#X connect 0 0 2 0;
#X connect 1 0 17 0;
#X connect 2 0 3 0;
#X connect 4 0 5 0;
#X connect 4 0 6 0;
#X connect 5 0 0 0;
#X connect 6 0 0 1;
#X connect 7 0 1 0;
#X connect 8 0 9 0;
#X connect 9 0 10 0;
#X connect 9 1 16 0;
#X connect 9 1 5 1;
#X connect 10 0 11 0;
#X connect 10 1 18 0;
#X connect 11 0 5 1;
#X connect 11 0 16 0;
#X connect 12 0 13 0;
#X connect 13 0 11 0;
#X connect 13 1 14 0;
#X connect 14 0 15 0;
#X connect 15 0 18 0;
#X connect 15 1 18 0;
#X connect 16 0 6 1;
#X connect 17 0 2 1;
#X connect 18 0 7 0;
#X connect 18 0 16 1;
